<svg xmlns="http://www.w3.org/2000/svg" viewBox="0 0 720 237.6"  xmlns:v="https://vecta.io/nano"><path d="M421.095 140.99H496.9v-8.422h-66.329V82.207h56.502v-8.423h-56.502V24.476H496.9v-8.423h-75.806V140.99m-23.863-35.445h-9.301c-3.685 17.372-16.318 28.076-33.164 28.076-8.949 0-17.372-3.334-23.689-9.651-8.949-8.95-9.651-18.776-9.651-45.448s.702-36.499 9.651-45.448c6.317-6.317 14.74-9.651 23.689-9.651 16.845 0 29.127 10.704 32.813 28.076h9.651C393.02 29.038 377.227 15 354.767 15c-11.932 0-22.987 4.563-31.235 12.81-11.405 11.406-11.581 22.461-11.581 50.712 0 28.076.176 39.306 11.581 50.712 8.248 8.246 19.303 12.809 31.235 12.809 22.109 0 38.253-14.038 42.464-36.498M255.274 28.687l26.146 73.524h-52.291l26.145-73.524zm40.008 112.303h10.178L259.485 16.053h-8.422L205.089 140.99h10.177l10.88-30.356h58.257l10.879 30.356zM202.63 52.025c0 18.776-11.932 27.55-29.304 27.55h-35.27V24.476h35.27c17.372 0 29.304 8.774 29.304 27.549m9.476 0c0-22.987-16.143-35.972-37.727-35.972h-45.798V140.99h9.475V87.997h36.323c21.584 0 37.727-13.16 37.727-35.972m-104.405 55.45c0-10.002-4.036-18.6-10.879-24.215-5.089-4.387-10.529-6.668-22.286-8.248l-13.511-2.105c-7.019-1.229-14.213-4.036-18.6-7.721s-6.493-9.125-6.493-16.319c0-15.968 10.704-25.795 28.953-25.795 14.74 0 22.987 4.563 30.357 11.581l6.142-6.141C90.68 19.212 80.854 15 65.412 15c-24.04 0-38.78 13.161-38.78 34.218 0 9.826 3.334 17.547 9.827 22.987 5.439 4.738 12.809 7.721 22.285 9.124l14.564 2.282c10.353 1.403 13.336 2.983 18.074 6.668 4.738 4.035 6.843 10.002 6.843 17.547 0 16.318-12.283 25.795-32.111 25.795-14.915 0-24.216-3.51-35.446-14.74L24 125.549c11.406 11.406 23.163 16.494 41.587 16.494 26.146 0 42.114-13.336 42.114-34.568m542.374-41.49l39.194-48.294h-22.005l-50.357 63.077h-.342V17.691h-18.561v86.96h-.349l-55.338-86.96h-17.53v122.366h18.567v-86.96h.331l55.349 86.96h17.531V107.28l21.663-26.671 33.164 59.448h21.997l-43.314-74.072"/><path d="M692.325 223.464h3.711v-48.928h-3.711v42.399l-28.244-42.399h-3.711v48.928h3.711v-42.537l28.244 42.537M644.84 199c0 10.446-.274 14.294-3.78 17.799-2.474 2.473-5.771 3.779-9.276 3.779s-6.803-1.307-9.277-3.779c-3.505-3.505-3.78-7.353-3.78-17.799s.275-14.294 3.78-17.798c2.475-2.475 5.772-3.78 9.277-3.78s6.803 1.306 9.276 3.78c3.505 3.504 3.78 7.353 3.78 17.798m3.711 0c0-11.064-.068-15.393-4.536-19.86-3.229-3.229-7.559-5.017-12.231-5.017s-9.002 1.787-12.232 5.017c-4.467 4.468-4.535 8.796-4.535 19.86 0 10.995.068 15.393 4.535 19.86 3.231 3.229 7.56 5.017 12.232 5.017s9.003-1.787 12.231-5.017c4.467-4.467 4.536-8.865 4.536-19.86m-47.142-.688c0 5.497.207 14.02-3.643 18.073-2.816 2.955-6.597 3.78-10.514 3.78h-11.82v-42.332h11.82c3.917 0 7.697.825 10.514 3.78 3.85 4.055 3.643 11.203 3.643 16.699m3.711 0c0-6.597.206-14.362-4.741-19.309-2.955-2.955-7.079-4.467-12.232-4.467h-16.425v48.928h16.425c5.153 0 9.277-1.511 12.232-4.466 4.947-4.948 4.741-14.088 4.741-20.686m-50.852 25.152h3.711v-48.928h-3.711v42.399l-28.243-42.399h-3.712v48.928h3.712v-42.537l28.243 42.537zM506.783 199c0 10.446-.275 14.294-3.78 17.799-2.474 2.473-5.772 3.779-9.277 3.779s-6.803-1.307-9.276-3.779c-3.505-3.505-3.78-7.353-3.78-17.799s.275-14.294 3.78-17.798c2.474-2.475 5.772-3.78 9.276-3.78s6.804 1.306 9.277 3.78c3.505 3.504 3.78 7.353 3.78 17.798m3.711 0c0-11.064-.069-15.393-4.536-19.86-3.231-3.229-7.559-5.017-12.232-5.017s-9.002 1.787-12.232 5.017c-4.467 4.468-4.536 8.796-4.536 19.86 0 10.995.069 15.393 4.536 19.86 3.23 3.229 7.559 5.017 12.232 5.017s9.002-1.787 12.232-5.017c4.467-4.467 4.536-8.865 4.536-19.86m-67.759 24.464h29.686v-3.298h-25.976v-45.63h-3.711v48.928zm-45.137-20.126l-14.262-28.796h7.608l10.046 21.705 10.045-21.705h7.605l-14.27 28.79v20.132h-6.772v-20.126zm-48.117-28.796h18.514c3.948 0 7.17 1.073 9.665 3.221 3.002 2.439 4.567 5.917 4.698 10.436-.087 6.643-3.138 11.163-9.151 13.557l10.968 21.709h-8.523l-9.808-20.907h-9.189v20.907h-7.174v-48.923zm7.174 21.444h10.883c2.694-.044 4.714-.853 6.061-2.423 1.324-1.458 1.987-3.253 1.987-5.383-.043-2.557-.836-4.407-2.379-5.552-1.216-1.009-2.975-1.514-5.278-1.514h-11.274v14.872zm-24.801 16.535h-17.971l-3.64 10.942h-7.605l17.225-48.922h6.012l17.224 48.922h-7.572l-3.673-10.942zm-2.047-6.569l-6.857-21.403h-.13l-6.857 21.403h13.844zm-28.492 3.845c-1.041 4.534-3.024 8.019-5.95 10.452-3.013 2.412-6.579 3.618-10.697 3.618-3.726-.09-6.834-1.029-9.324-2.819-2.535-1.722-4.376-3.713-5.523-5.972a54.04 54.04 0 0 1-.942-2.114c-.26-.693-.478-1.566-.651-2.617-.325-1.969-.487-5.749-.487-11.342 0-5.682.163-9.484.488-11.409.347-1.923.877-3.477 1.592-4.664 1.148-2.259 2.99-4.271 5.526-6.04 2.491-1.789 5.601-2.706 9.327-2.751 4.572.045 8.299 1.441 11.181 4.188 2.881 2.77 4.701 6.198 5.46 10.286h-7.617c-.586-1.974-1.65-3.654-3.19-5.044-1.606-1.322-3.559-2.007-5.859-2.052-1.693.045-3.147.393-4.362 1.042-1.238.674-2.236 1.514-2.995 2.523-.933 1.054-1.551 2.41-1.856 4.069-.347 1.749-.52 5.032-.52 9.852s.173 8.081.521 9.785c.304 1.704.922 3.082 1.856 4.136.76 1.009 1.758 1.827 2.996 2.455 1.216.74 2.67 1.109 4.364 1.109 4.038 0 7.056-2.23 9.053-6.691h7.609zm-70.182-35.255h30.272v6.976h-23.097v13.998h19.716v6.571h-19.716v14.401h23.097v6.976h-30.272v-48.922zm-18.556 27.545h-18.796v21.377h-7.175v-48.922h7.175v20.974h18.796v-20.974h7.175v48.922h-7.175v-21.377zm-52.278-20.972h-12.987v-6.573h33.158v6.573h-12.996v42.349h-7.175v-42.349zm-43.157 17.888c0 4.82.173 8.081.52 9.785.304 1.704.923 3.083 1.856 4.136.759 1.009 1.758 1.827 2.995 2.455 1.215.74 2.67 1.109 4.363 1.109 1.714 0 3.2-.369 4.46-1.109 1.193-.628 2.148-1.446 2.865-2.455.933-1.054 1.573-2.432 1.921-4.136.325-1.704.488-4.965.488-9.785s-.163-8.103-.488-9.852c-.348-1.659-.988-3.016-1.921-4.069-.717-1.009-1.672-1.849-2.865-2.523-1.26-.649-2.746-.997-4.46-1.042-1.693.045-3.148.393-4.363 1.042-1.237.674-2.236 1.514-2.995 2.523-.933 1.054-1.552 2.41-1.856 4.069-.347 1.749-.52 5.033-.52 9.852m-7.175 0c0-5.694.162-9.504.487-11.432.347-1.929.877-3.486 1.593-4.675 1.147-2.25 2.988-4.256 5.522-6.017 2.49-1.783 5.598-2.696 9.323-2.741 3.769.045 6.909.962 9.421 2.751 2.491 1.769 4.289 3.781 5.393 6.04.801 1.187 1.353 2.741 1.656 4.664.281 1.925.422 5.728.422 11.409 0 5.593-.141 9.373-.422 11.342-.304 1.968-.856 3.545-1.657 4.731-1.104 2.259-2.902 4.25-5.393 5.972-2.512 1.79-5.652 2.729-9.42 2.819-3.725-.09-6.833-1.029-9.323-2.819-2.534-1.722-4.375-3.713-5.523-5.972a55.58 55.58 0 0 1-.942-2.114c-.26-.693-.477-1.566-.65-2.617-.325-1.968-.487-5.748-.487-11.341m-39.124-24.461H88.02a26.66 26.66 0 0 1 5.4.537c1.735.469 3.492 1.431 5.27 2.885 1.493 1.096 2.705 2.662 3.636 4.697.974 1.969 1.461 4.295 1.461 6.979 0 3.624-1.237 6.922-3.709 9.898-2.539 3.132-6.248 4.743-11.129 4.832H78.017v19.095h-7.174v-48.923zm7.174 22.854h10.649c2.671-.046 4.679-.9 6.025-2.562 1.281-1.618 1.922-3.415 1.922-5.393 0-1.642-.261-3.023-.782-4.148a6.1 6.1 0 0 0-2.28-2.393c-1.476-.967-3.192-1.428-5.145-1.383H78.017v15.879zm-24.801 15.125H35.245l-3.64 10.942H24l17.225-48.922h6.012l17.224 48.922h-7.573l-3.672-10.942zm-2.047-6.569l-6.857-21.403h-.13l-6.857 21.403h13.844z" fill="#8a8c8e"/></svg>